<?xml version="1.0" encoding="UTF-8"?>
<svg id="Layer_1" data-name="Layer 1" xmlns="http://www.w3.org/2000/svg" viewBox="0 0 340.09 335.33">
  <defs>
    <style>
      .cls-1 {
        fill: #fa8b79;
      }

      .cls-1, .cls-2 {
        stroke-width: 0px;
      }

      .cls-2 {
        fill: #f2c1a5;
      }
    </style>
  </defs>
  <path class="cls-2" d="m326.57,104.87c-.73-1.87-1.54-3.72-2.37-5.56-12.21-27.38-31.46-50.27-55.27-67.03-.06-.06-.14-.08-.2-.14-1.34-.92-2.65-1.84-4.05-2.77-1.43-.95-2.88-1.87-4.33-2.77C234.92,10.71,204.8,1.4,172.39,1.12c-1.56-.03-3.13-.03-4.69,0-32.41.28-62.53,9.58-87.96,25.48-1.45.89-2.91,1.82-4.33,2.77-1.45.95-2.85,1.9-4.25,2.91-23.81,16.76-43.06,39.65-55.27,67.03-.84,1.84-1.62,3.69-2.37,5.56C5.3,124.79.92,146.61,1.14,169.44v.5c0,65.35,41.24,127.02,102.71,152.25,5.78,2.4,11.76,4.47,17.91,6.17,3.86,1.06,7.77,2.01,11.74,2.79,11.71,2.32,23.92,3.38,36.55,2.99.25,0,.53.03.78.03,12.35.31,24.31-.75,35.76-3.02,8.13-1.62,16.04-3.83,23.64-6.62,64.79-23.61,108.72-87.12,108.72-154.6v-.5c.22-22.83-4.16-44.65-12.38-64.57Zm-48.73,46.47c-1.73,12.29-6.93,23.78-14.28,34.95-.2.31-.39.61-.61.89,0,.03,0,.06-.03.06-9.33,13.89-21.51,25.01-33.67,36.07-16.37,14.89-32.66,28.83-46.88,40.6-2.12,1.76-4.19,3.46-6.23,5.11-2.46,2.01-4.55,3.69-6.09,4.95-.08-.08-.2-.14-.28-.25-.42-.31-.84-.61-1.23-.98-1.12-.84-2.24-1.73-3.32-2.68-.42-.31-.84-.67-1.26-1.03-6.2-5.03-12.88-10.59-19.87-16.51-10.59-9-21.91-18.89-33.25-29.2-2.15-1.96-4.3-3.94-6.43-5.9-10.23-9.44-20.09-19.28-27.89-31.13-7.35-11.18-12.55-22.66-14.28-34.95-1.2-18.44,3.16-33.81,10.98-45.04.03-.06.06-.08.11-.14,8.94-11.43,21.91-18.3,34.81-20.34.73-.11,1.45-.22,2.15-.31,23.22-2.88,41.24,7.82,54.82,26.8,1.7,2.35,3.16,4.89,4.92,7.88,1.76-2.99,3.21-5.53,4.92-7.88,13.58-18.97,31.6-29.67,54.82-26.8.7.08,1.42.2,2.15.31,12.91,2.04,25.87,8.91,34.81,20.34.03.06.08.11.11.14,7.82,11.23,12.18,26.6,10.98,45.04Z"/>
  <path class="cls-1" d="m338.94,169.44v.5c0,75.38-54.85,145.85-132.36,161.22-11.46,2.26-23.41,3.32-35.76,3.02-3.39-2.14-11.32-7.82-14.84-18.11-4.69-13.73.42-29.99,12.96-41.18,1.7-1.38,4.19-3.41,7.18-5.87,20.88-17.15,37.26-31.27,53.12-45.71,12.15-11.06,24.34-22.18,33.67-36.07.03,0,.03-.03.03-.06,15.23-20.54,28.67-46.88,29.42-77.79.81-33.08-13.19-59.35-23.64-77.26.06.06.14.08.2.14,23.81,16.76,43.06,39.65,55.27,67.03.84,1.84,1.65,3.69,2.37,5.56,8.21,19.92,12.6,41.74,12.38,64.57Z"/>
</svg>