<?xml version="1.0" encoding="UTF-8"?>
<svg id="Layer_1" data-name="Layer 1" xmlns="http://www.w3.org/2000/svg" viewBox="0 0 870.13 263.49">
  <defs>
    <style>
      .cls-1 {
        fill: #3a362d;
      }

      .cls-1, .cls-2, .cls-3 {
        stroke-width: 0px;
      }

      .cls-2 {
        fill: #fa8b79;
      }

      .cls-3 {
        fill: #f2c1a5;
      }
    </style>
  </defs>
  <path class="cls-1" d="m204.17,225.21v-115.83c0-18.52-.32-31.16-.95-37.9-.63-6.72-1.97-12.12-4-16.2-3.56-7.09-9.27-12.7-17.15-16.75-7.87-4.06-16.89-6.11-27.05-6.11-12.19,0-24.44,2.81-36.77,8.4-12.31,5.58-23.94,13.59-34.85,24v-32.39h-3.82l-59.05,18.67v4.95l28.19,10.67v158.13l-28.95,5.72v7.61h93.73v-7.61l-28.58-5.72V77c6.35-7.61,13.78-13.46,22.28-17.52,8.51-4.08,17.33-6.11,26.47-6.11,14.99,0,24.89,5.85,29.73,17.52,1.77,4.08,2.98,9.35,3.61,15.82.63,6.48.95,15.3.95,26.47v112.02l-28.58,5.34v7.61h93.34v-7.61l-28.58-5.34Z"/>
  <path class="cls-1" d="m664.8,209.59V36.23h-64.77v7.61l28.58,5.72v145.17c-6.87,8.64-14.48,15.23-22.86,19.81-8.38,4.58-17.02,6.85-25.91,6.85-6.35,0-11.88-1.27-16.57-3.8-4.71-2.55-8.06-5.98-10.09-10.3-1.79-3.82-3-8.88-3.63-15.25-.63-6.33-.95-15.49-.95-27.42V36.23h-64.77v7.61l28.58,5.72v115.07c0,17.28.37,29.47,1.14,36.58.76,7.11,2.16,12.94,4.19,17.52,3.56,7.37,9.16,13.09,16.77,17.15,7.61,4.06,16.51,6.11,26.68,6.11,12.7,0,24.95-3.05,36.75-9.16,11.82-6.09,22.3-14.73,31.44-25.9l1.53.37v34.68h2.66l57.15-18.67v-4.58l-25.91-9.14Z"/>
  <path class="cls-1" d="m842.72,150.35c-5.08-8.01-11.11-14.3-18.1-18.88-6.98-4.56-16.33-9.51-28-14.86-9.4-4.3-16.77-8.12-22.1-11.43-5.34-3.3-9.85-7.43-13.53-12.38-3.69-4.95-5.51-10.98-5.51-18.1,0-9.38,2.98-16.89,8.95-22.47,5.96-5.58,14.02-8.4,24.18-8.4,25.91,0,40.77,16.01,44.59,48.01h7.99v-52.96c-4.82-2.03-11.36-3.61-19.62-4.75-8.25-1.15-16.7-1.73-25.34-1.73-22.6,0-40.06,4.84-52.37,14.48-12.32,9.66-18.49,23.38-18.49,41.14,0,11.19,2.4,20.59,7.24,28.2,4.82,7.61,10.67,13.65,17.52,18.1,6.87,4.45,16.01,9.46,27.44,15.04,10.15,5.08,18.02,9.35,23.62,12.77,5.57,3.43,10.28,7.87,14.09,13.33,3.8,5.47,5.72,12.14,5.72,20.01,0,10.67-3.43,19.18-10.3,25.52-6.85,6.35-15.99,9.53-27.42,9.53-14.48,0-25.78-4.97-33.92-14.87-8.14-9.9-13.09-24.5-14.86-43.8h-9.14l2.29,61.71c7.35,2.55,15.94,4.58,25.71,6.11,9.77,1.53,18.73,2.29,26.86,2.29,21.58,0,38.67-5.58,51.25-16.77,12.57-11.17,18.86-26.16,18.86-44.96,0-11.93-2.55-21.91-7.63-29.9Z"/>
  <g>
    <path class="cls-3" d="m461.77,89.9c-.48-1.25-1.02-2.48-1.58-3.7-8.14-18.24-20.96-33.49-36.82-44.66-.04-.04-.09-.06-.13-.09-.89-.61-1.77-1.23-2.7-1.84-.95-.63-1.92-1.25-2.89-1.84-16.94-10.59-37.01-16.79-58.61-16.98-1.04-.02-2.09-.02-3.13,0-21.6.19-41.66,6.39-58.61,16.98-.97.6-1.94,1.21-2.89,1.84-.97.63-1.9,1.27-2.83,1.94-15.86,11.17-28.69,26.42-36.82,44.66-.56,1.23-1.08,2.46-1.58,3.7-5.47,13.27-8.4,27.81-8.25,43.02v.34c0,43.54,27.48,84.63,68.43,101.44,3.85,1.6,7.84,2.98,11.93,4.11,2.57.71,5.18,1.34,7.82,1.86,7.8,1.55,15.94,2.25,24.35,1.99.17,0,.35.02.52.02,8.23.2,16.2-.5,23.83-2.01,5.42-1.08,10.69-2.55,15.75-4.41,43.17-15.73,72.44-58.05,72.44-103.01v-.34c.15-15.21-2.77-29.75-8.25-43.02Zm-32.47,30.96c-1.15,8.19-4.62,15.84-9.51,23.29-.13.2-.26.41-.41.6,0,.02,0,.04-.02.04-6.22,9.25-14.33,16.66-22.43,24.03-10.91,9.92-21.76,19.21-31.24,27.05-1.41,1.17-2.79,2.31-4.15,3.41-1.64,1.34-3.03,2.46-4.06,3.3-.06-.06-.13-.09-.19-.17-.28-.2-.56-.41-.82-.65-.74-.56-1.49-1.15-2.22-1.79-.28-.2-.56-.45-.84-.69-4.13-3.35-8.58-7.06-13.24-11-7.06-5.99-14.6-12.58-22.15-19.45-1.43-1.3-2.87-2.62-4.28-3.93-6.81-6.29-13.39-12.85-18.58-20.74-4.9-7.45-8.36-15.1-9.51-23.29-.8-12.29,2.1-22.53,7.32-30.01.02-.04.04-.06.07-.09,5.96-7.61,14.6-12.19,23.2-13.55.48-.07.97-.15,1.43-.2,15.47-1.92,27.48,5.21,36.53,17.85,1.14,1.56,2.1,3.26,3.28,5.25,1.17-1.99,2.14-3.69,3.28-5.25,9.05-12.64,21.06-19.77,36.53-17.85.47.06.95.13,1.43.2,8.6,1.36,17.24,5.94,23.2,13.55.02.04.06.07.07.09,5.21,7.48,8.12,17.72,7.32,30.01Z"/>
    <path class="cls-2" d="m470.02,132.93v.34c0,50.23-36.54,97.18-88.19,107.42-7.63,1.51-15.6,2.22-23.83,2.01-2.26-1.42-7.55-5.21-9.89-12.06-3.12-9.15.28-19.98,8.64-27.44,1.13-.92,2.79-2.27,4.78-3.91,13.91-11.43,24.82-20.84,35.39-30.46,8.1-7.37,16.22-14.78,22.43-24.03.02,0,.02-.02.02-.04,10.15-13.68,19.1-31.24,19.6-51.83.54-22.04-8.79-39.54-15.75-51.48.04.04.09.06.13.09,15.86,11.17,28.69,26.42,36.82,44.66.56,1.23,1.1,2.46,1.58,3.7,5.47,13.27,8.4,27.81,8.25,43.02Z"/>
  </g>
</svg>